# xmcd
#
# Track frame offsets: 
#        150
#        11324
#        24316
#        34655
#        44747
#        57378
#        67357
#        77038
#        87516
#        97914
#        100450
#        111963
#        122800
#        133404
#        145262
#        154590
#        165427
#        175954
#        183472
#        192832
#        199051
#        205934
#        214371
#        224814
#        236309
#        246331
#        256443
#        265942
#        277012
#
# Disc length: 3810 seconds
#
# Revision: 0
# Processed by: cddbd v1.5.2PL0 Copyright (c) Steve Scherf et al.
# Submitted via: ExactAudioCopy v0.95b3
#
DISCID=bf0ee01d
DTITLE=Roy Orbison  - Orbison  1955 - 1965 Disc 1
DYEAR=1900
DGENRE=
TTITLE0=Ooby Dooby (The Teen Kings)
TTITLE1=Trying To Get To You (The Teen Kings)
TTITLE2=Ooby Dooby (Sun Master)
TTITLE3=Go! Go! Go!
TTITLE4=Trying To Get To You
TTITLE5=You're My Baby
TTITLE6=Rock House
TTITLE7=Sweet and Easy To Love
TTITLE8=Devil  Doll
TTITLE9=Love Dumb Baby (Fragment)
TTITLE10=Fools Hall Of Fame
TTITLE11=A True Love Goodbye
TTITLE12=Chicken Hearted
TTITLE13=I Like Love
TTITLE14=Mean Little Mama
TTITLE15=Problem Child
TTITLE16=Cat Called Domino
TTITLE17=You Tell Me
TTITLE18=I Give Up
TTITLE19=One More Time
TTITLE20=Lovesick
TTITLE21=The Clown
TTITLE22=Claudette
TTITLE23=The Cause Of It All
TTITLE24=You're Gonna Cry
TTITLE25=This Kind Of Love
TTITLE26=It's Too Late
TTITLE27=I Never Knew
TTITLE28=Claudette
EXTD=
EXTT0=
EXTT1=
EXTT2=
EXTT3=
EXTT4=
EXTT5=
EXTT6=
EXTT7=
EXTT8=
EXTT9=
EXTT10=
EXTT11=
EXTT12=
EXTT13=
EXTT14=
EXTT15=
EXTT16=
EXTT17=
EXTT18=
EXTT19=
EXTT20=
EXTT21=
EXTT22=
EXTT23=
EXTT24=
EXTT25=
EXTT26=
EXTT27=
EXTT28=
PLAYORDER=
